<svg width="83" height="83" viewBox="0 0 83 83" fill="none" xmlns="http://www.w3.org/2000/svg">
<rect width="83" height="83" rx="20" fill="#00CD82"/>
<path d="M18 36L40.5 44.6207L63 36V51C63 56.5228 58.5228 61 53 61H28C22.4772 61 18 56.5228 18 51V36Z" fill="white"/>
<path d="M18 33C18 27.4772 22.4772 23 28 23H53C58.5228 23 63 27.4772 63 33V33.3636L40.5 42L18 33.3636V33Z" fill="white"/>
<path d="M40.6789 45.0876L62.5 36.727V51C62.5 56.2467 58.2467 60.5 53 60.5H28C22.7533 60.5 18.5 56.2467 18.5 51V36.727L40.3211 45.0876L40.5 45.1561L40.6789 45.0876ZM18.5 33C18.5 27.7533 22.7533 23.5 28 23.5H53C58.2467 23.5 62.5 27.7533 62.5 33V33.02L40.5 41.4644L18.5 33.02V33Z" stroke="white"/>
</svg>
